<svg width="57" height="28" viewBox="0 0 57 28" fill="none" xmlns="http://www.w3.org/2000/svg">
<path d="M3.99931 4.44343C6.55601 3.73663 9.01201 3.06843 11.4638 2.39153C11.9532 2.25873 12.2985 2.16453 12.8864 1.89933C13.325 1.70683 14.2467 1.27913 13.9475 0.865527C13.6635 0.550027 13.4201 0.362528 12.5481 0.512828C10.2979 0.912028 8.1187 1.63553 5.9529 2.34193C4.0408 2.96693 2.59191 3.47203 0.931207 4.12233C0.155607 4.42613 0.0315071 4.92983 0.443307 5.55243C0.813107 6.11103 1.1824 6.69103 1.6539 7.16843C3.3442 8.89923 5.0746 10.5787 6.7958 12.2838C7.0083 12.4969 7.1606 12.676 7.4512 12.8933C7.8059 13.1532 8.0488 13.3621 8.3766 13.0758C8.691 12.8066 8.42421 12.3034 8.23811 12.0774C6.72591 10.1545 3.538 6.24043 3.4175 5.99313C4.9169 6.14943 6.30871 6.26313 7.69441 6.45373C17.337 7.82623 26.7823 9.86453 35.5668 14.0927C42.5198 17.4395 48.9308 21.5464 54.6688 26.6355C55.0098 26.9338 55.3808 27.2066 55.7448 27.4622C56.2318 27.8159 56.5508 27.9137 56.7608 27.6745C57.0928 27.1749 56.8268 26.8508 56.6378 26.5737C56.2678 26.015 55.7698 25.5291 55.2898 25.0559C48.7968 18.7941 41.1218 14.2789 32.7868 10.7501C24.2328 7.12762 15.1637 5.54973 5.9085 4.72733C5.4182 4.70223 4.21461 4.52863 3.99931 4.44343Z" fill="#F67ACB"/>
</svg>
