<svg width="60" height="19" viewBox="0 0 60 19" fill="none" xmlns="http://www.w3.org/2000/svg">
<path d="M56.9047 5.82496C55.1827 7.84226 53.5225 9.77297 51.8712 11.7067C51.5399 12.0909 51.3067 12.3629 50.9686 12.9114C50.7129 13.3165 50.1891 14.1871 50.6691 14.3626C51.0803 14.4647 51.3878 14.4834 52.0257 13.8703C53.6658 12.2791 55.065 10.4586 56.4633 8.66054C57.6967 7.07086 58.614 5.84155 59.6256 4.37181C60.0979 3.68578 59.9186 3.19923 59.2286 2.91405C58.6088 2.65869 57.9786 2.38514 57.3198 2.25399C54.9502 1.76765 52.5758 1.34522 50.1951 0.89763C49.8995 0.839657 49.6731 0.777506 49.311 0.760265C48.8713 0.742751 48.5524 0.706353 48.4419 1.12695C48.3319 1.52647 48.835 1.79376 49.1159 1.87635C51.446 2.62222 56.2792 4.07761 56.5182 4.21559C55.1881 4.92579 53.9721 5.61166 52.7172 6.22999C43.9609 10.4956 34.996 14.0999 25.3502 15.5189C17.7162 16.6425 10.1046 16.8328 2.50082 15.8327C2.05169 15.7768 1.59091 15.7587 1.14646 15.7509C0.544916 15.731 0.225107 15.8291 0.18533 16.1442C0.189986 16.7442 0.592789 16.8638 0.905288 16.9871C1.52413 17.243 2.20846 17.3663 2.87173 17.4892C11.7575 19.0377 20.6453 18.4778 29.5255 16.7307C38.6403 14.9381 47.0372 11.164 55.1636 6.6593C55.5838 6.40514 56.6783 5.87484 56.9047 5.82496Z" fill="#F67ACB"/>
</svg>
